<svg width="12" height="22" viewBox="0 0 12 22" fill="none" xmlns="http://www.w3.org/2000/svg">
<path d="M9.745 21.4999C9.52091 21.5007 9.29949 21.4512 9.09702 21.3552C8.89456 21.2591 8.71618 21.119 8.575 20.9449L1.33 11.9449C1.10938 11.6765 0.98877 11.3399 0.98877 10.9924C0.98877 10.645 1.10938 10.3083 1.33 10.0399L8.83 1.03993C9.08461 0.7336 9.45047 0.540964 9.84711 0.504394C10.2438 0.467825 10.6387 0.590317 10.945 0.844925C11.2513 1.09953 11.444 1.4654 11.4805 1.86204C11.5171 2.25868 11.3946 2.6536 11.14 2.95992L4.435 10.9999L10.915 19.0399C11.0984 19.2601 11.2149 19.5282 11.2508 19.8125C11.2866 20.0969 11.2402 20.3855 11.1171 20.6443C10.994 20.9031 10.7994 21.1212 10.5562 21.2728C10.3131 21.4245 10.0316 21.5033 9.745 21.4999Z" fill="#6A6A6A"/>
</svg>
