<svg width="20" height="20" viewBox="0 0 20 20" fill="none" xmlns="http://www.w3.org/2000/svg">
<path d="M12.1149 10.0003L18.5649 3.56528C18.8474 3.28282 19.006 2.89973 19.006 2.50028C19.006 2.10083 18.8474 1.71773 18.5649 1.43528C18.2825 1.15282 17.8994 0.994141 17.4999 0.994141C17.1005 0.994141 16.7174 1.15282 16.4349 1.43528L9.99991 7.88528L3.56491 1.43528C3.28245 1.15282 2.89936 0.994141 2.49991 0.994141C2.10046 0.994141 1.71736 1.15282 1.43491 1.43528C1.15245 1.71773 0.993771 2.10083 0.993771 2.50028C0.993771 2.89973 1.15245 3.28282 1.43491 3.56528L7.88491 10.0003L1.43491 16.4353C1.29432 16.5747 1.18272 16.7406 1.10657 16.9234C1.03042 17.1062 0.991211 17.3023 0.991211 17.5003C0.991211 17.6983 1.03042 17.8944 1.10657 18.0771C1.18272 18.2599 1.29432 18.4258 1.43491 18.5653C1.57435 18.7059 1.74025 18.8175 1.92304 18.8936C2.10583 18.9698 2.30189 19.009 2.49991 19.009C2.69793 19.009 2.89398 18.9698 3.07677 18.8936C3.25956 18.8175 3.42546 18.7059 3.56491 18.5653L9.99991 12.1153L16.4349 18.5653C16.5744 18.7059 16.7403 18.8175 16.923 18.8936C17.1058 18.9698 17.3019 19.009 17.4999 19.009C17.6979 19.009 17.894 18.9698 18.0768 18.8936C18.2596 18.8175 18.4255 18.7059 18.5649 18.5653C18.7055 18.4258 18.8171 18.2599 18.8932 18.0771C18.9694 17.8944 19.0086 17.6983 19.0086 17.5003C19.0086 17.3023 18.9694 17.1062 18.8932 16.9234C18.8171 16.7406 18.7055 16.5747 18.5649 16.4353L12.1149 10.0003Z" fill="black"/>
</svg>
