<svg width="19" height="19" viewBox="0 0 19 19" fill="none" xmlns="http://www.w3.org/2000/svg">
<g clip-path="url(#clip0)">
<path d="M4.16894 7.73062C4.53935 6.60998 5.2542 5.63493 6.21153 4.94459C7.16886 4.25425 8.31975 3.88387 9.50002 3.88629C10.8379 3.88629 12.0476 4.36129 12.9976 5.13871L15.7621 2.375C14.0774 0.906458 11.9186 0 9.50002 0C5.75544 0 2.53177 2.13592 0.981689 5.26458L4.16894 7.73062Z" fill="#EA4335"/>
<path d="M12.6983 14.2602C11.8354 14.8167 10.7397 15.1136 9.49996 15.1136C8.32439 15.116 7.17784 14.7486 6.22264 14.0634C5.26745 13.3781 4.55199 12.4098 4.17758 11.2954L0.979248 13.7235C1.76398 15.3118 2.97842 16.6482 4.48461 17.5809C5.9908 18.5136 7.72837 19.0052 9.49996 18.9999C11.8219 18.9999 14.0402 18.1742 15.7019 16.6249L12.6991 14.2602H12.6983Z" fill="#34A853"/>
<path d="M15.7019 16.6249C17.4396 15.0035 18.5678 12.5905 18.5678 9.49988C18.5678 8.93779 18.4815 8.33375 18.3524 7.77246H9.5V11.4434H14.5952C14.3442 12.6776 13.6689 13.6332 12.6991 14.2602L15.7019 16.6249Z" fill="#4A90E2"/>
<path d="M4.1776 11.2956C3.98392 10.7168 3.88553 10.1104 3.88626 9.50007C3.88626 8.88098 3.98522 8.28644 4.16889 7.73069L0.981637 5.26465C0.329603 6.58094 -0.00651869 8.03114 -2.98771e-05 9.50007C-2.98771e-05 11.0201 0.352262 12.453 0.979262 13.7236L4.1776 11.2956Z" fill="#FBBC05"/>
</g>
<defs>
<clipPath id="clip0">
<rect width="19" height="19" fill="white"/>
</clipPath>
</defs>
</svg>
