<svg width="41" height="37" viewBox="0 0 41 37" fill="none" xmlns="http://www.w3.org/2000/svg">
<path d="M39.25 5.54963C37.575 2.11213 32.75 -0.70037 27.1375 0.93713C24.4555 1.7118 22.1156 3.37311 20.5 5.64963C18.8843 3.37311 16.5444 1.7118 13.8625 0.93713C8.23746 -0.67537 3.42496 2.11213 1.74996 5.54963C-0.600044 10.3621 0.374956 15.7746 4.64996 21.6371C7.99996 26.2246 12.7875 30.8746 19.7375 36.2746C19.9571 36.4459 20.2277 36.539 20.5062 36.539C20.7847 36.539 21.0553 36.4459 21.275 36.2746C28.2125 30.8871 33.0125 26.2746 36.3625 21.6371C40.625 15.7746 41.6 10.3621 39.25 5.54963Z" fill="#FF8F27"/>
</svg>
