<svg width="16" height="15" viewBox="0 0 16 15" fill="none" xmlns="http://www.w3.org/2000/svg">
<path d="M8.08136 0C6.11152 0 5.86602 0.00951177 5.09512 0.0421235C4.32104 0.0801706 3.79744 0.2002 3.33544 0.379565C2.85191 0.562109 2.41401 0.847913 2.05226 1.21705C1.68209 1.57796 1.39613 2.0161 1.21477 2.50024C1.03541 2.96224 0.915376 3.48584 0.877329 4.25991C0.842452 5.03127 0.835205 5.27631 0.835205 7.24615C0.835205 9.21599 0.844717 9.46149 0.877329 10.2324C0.915376 11.0042 1.03541 11.5301 1.21477 11.9921C1.39731 12.4756 1.68312 12.9135 2.05226 13.2753C2.41316 13.6454 2.85131 13.9314 3.33544 14.1127C3.79744 14.2898 4.32331 14.4121 5.09512 14.4502C5.86648 14.4851 6.11152 14.4923 8.08136 14.4923C10.0512 14.4923 10.2967 14.4828 11.0676 14.4502C11.8394 14.4121 12.3653 14.2894 12.8273 14.1127C13.3108 13.9302 13.7487 13.6444 14.1105 13.2753C14.4811 12.9147 14.7671 12.4765 14.9479 11.9921C15.125 11.5301 15.2473 11.0042 15.2854 10.2324C15.3203 9.46103 15.3275 9.21599 15.3275 7.24615C15.3275 5.27631 15.318 5.03082 15.2854 4.25991C15.2473 3.4881 15.1246 2.95952 14.9479 2.50024C14.7654 2.0167 14.4796 1.5788 14.1105 1.21705C13.75 0.846407 13.3117 0.56037 12.8273 0.379565C12.3653 0.2002 11.8394 0.0801706 11.0676 0.0421235C10.2962 0.00724706 10.0512 0 8.08136 0ZM8.08136 1.30447C10.0159 1.30447 10.2469 1.31398 11.0114 1.34659C11.7167 1.37966 12.1008 1.49742 12.3558 1.59707C12.671 1.71344 12.9564 1.89866 13.191 2.13924C13.4312 2.37288 13.6157 2.65756 13.7309 2.9722C13.8305 3.22721 13.9483 3.6113 13.9814 4.31653C14.014 5.08109 14.0235 5.31255 14.0235 7.24661C14.0235 9.18067 14.014 9.41212 13.9787 10.1767C13.9406 10.8819 13.8228 11.266 13.7236 11.521C13.5864 11.8612 13.4333 12.099 13.1806 12.3562C12.9451 12.5953 12.66 12.7796 12.3453 12.8961C12.0935 12.9958 11.704 13.1136 10.996 13.1466C10.2274 13.1792 10.0009 13.1887 8.06143 13.1887C6.12194 13.1887 5.89592 13.1792 5.12637 13.1439C4.42114 13.1059 4.03206 12.9881 3.77706 12.8889C3.43282 12.7517 3.19684 12.5986 2.9441 12.3458C2.68909 12.0908 2.52694 11.848 2.40193 11.5106C2.30047 11.2588 2.18452 10.8692 2.14692 10.1613C2.12111 9.4017 2.10888 9.16617 2.10888 7.23574C2.10888 5.30621 2.12111 5.07022 2.14692 4.30113C2.18452 3.59318 2.30047 3.20456 2.40193 2.95182C2.52694 2.60713 2.68955 2.3716 2.9441 2.11659C3.19639 1.86431 3.43282 1.70125 3.77706 1.57352C4.03206 1.47432 4.41163 1.35656 5.11958 1.32123C5.88822 1.2936 6.11469 1.28364 8.05147 1.28364L8.08136 1.30447ZM8.08136 3.52705C7.59279 3.52687 7.10898 3.62297 6.65756 3.80986C6.20615 3.99674 5.79599 4.27075 5.45052 4.61622C5.10505 4.96169 4.83104 5.37185 4.64416 5.82326C4.45727 6.27468 4.36117 6.75849 4.36135 7.24706C4.36117 7.73563 4.45727 8.21944 4.64416 8.67085C4.83104 9.12227 5.10505 9.53243 5.45052 9.8779C5.79599 10.2234 6.20615 10.4974 6.65756 10.6843C7.10898 10.8711 7.59279 10.9672 8.08136 10.9671C8.56993 10.9672 9.05374 10.8711 9.50515 10.6843C9.95657 10.4974 10.3667 10.2234 10.7122 9.8779C11.0577 9.53243 11.3317 9.12227 11.5186 8.67085C11.7054 8.21944 11.8015 7.73563 11.8014 7.24706C11.8015 6.75849 11.7054 6.27468 11.5186 5.82326C11.3317 5.37185 11.0577 4.96169 10.7122 4.61622C10.3667 4.27075 9.95657 3.99674 9.50515 3.80986C9.05374 3.62297 8.56993 3.52687 8.08136 3.52705ZM8.08136 9.66259C6.74609 9.66259 5.66582 8.58233 5.66582 7.24706C5.66582 5.91179 6.74609 4.83152 8.08136 4.83152C9.41663 4.83152 10.4969 5.91179 10.4969 7.24706C10.4969 8.58233 9.41663 9.66259 8.08136 9.66259ZM12.8209 3.37849C12.8207 3.60934 12.7288 3.83065 12.5655 3.9938C12.4022 4.15695 12.1808 4.24859 11.9499 4.24859C11.8358 4.24859 11.7228 4.22611 11.6173 4.18243C11.5118 4.13874 11.416 4.07472 11.3353 3.99401C11.2546 3.9133 11.1906 3.81748 11.1469 3.71202C11.1032 3.60656 11.0807 3.49354 11.0807 3.37939C11.0807 3.26525 11.1032 3.15222 11.1469 3.04677C11.1906 2.94131 11.2546 2.84549 11.3353 2.76478C11.416 2.68407 11.5118 2.62004 11.6173 2.57636C11.7228 2.53268 11.8358 2.5102 11.9499 2.5102C12.4287 2.5102 12.8209 2.89973 12.8209 3.37849Z" fill="#FD993C"/>
</svg>
