<svg width="25" height="25" viewBox="0 0 25 25" fill="none" xmlns="http://www.w3.org/2000/svg">
<path d="M4.16667 13.5418C4.74196 13.5418 5.20833 13.0755 5.20833 12.5002C5.20833 11.9249 4.74196 11.4585 4.16667 11.4585C3.59137 11.4585 3.125 11.9249 3.125 12.5002C3.125 13.0755 3.59137 13.5418 4.16667 13.5418Z" stroke="black" stroke-width="2"/>
<path d="M12.5 13.5418C13.0753 13.5418 13.5417 13.0755 13.5417 12.5002C13.5417 11.9249 13.0753 11.4585 12.5 11.4585C11.9247 11.4585 11.4583 11.9249 11.4583 12.5002C11.4583 13.0755 11.9247 13.5418 12.5 13.5418Z" stroke="black" stroke-width="2"/>
<path d="M20.8333 13.5418C21.4086 13.5418 21.875 13.0755 21.875 12.5002C21.875 11.9249 21.4086 11.4585 20.8333 11.4585C20.258 11.4585 19.7917 11.9249 19.7917 12.5002C19.7917 13.0755 20.258 13.5418 20.8333 13.5418Z" stroke="black" stroke-width="2"/>
</svg>
